<svg width="26" height="26" viewBox="0 0 26 26" fill="none" xmlns="http://www.w3.org/2000/svg">
<path d="M10.0001 16L13.0001 20L17.0001 16C17.2323 15.773 17.8739 15.3014 18.0001 15C18.1262 14.6986 18.0001 14.3275 18.0001 14C18.0001 13.6725 18.1262 14.3014 18.0001 14C17.8739 13.6986 17.2323 13.227 17.0001 13C16.5319 12.5303 16.6578 12 16.0001 12C15.3423 12 14.4682 12.5303 14.0001 13H13.0001C12.5321 12.5303 11.6576 12 11.0001 12C10.3425 12 10.468 12.5303 10.0001 13C9.76784 13.227 9.12624 13.6986 9.00005 14C8.87387 14.3014 9.00005 13.6725 9.00005 14C9.00005 14.3275 8.87387 14.6986 9.00005 15C9.12624 15.3014 9.76784 15.773 10.0001 16Z" fill="#FF427F"/>
<path d="M21 4H19V2H16V4H10V2H7V4H5C3.77444 4 3 4.7867 3 6V22C3 23.2133 3.77444 24 5 24H21C22.2256 24 23 23.2133 23 22V6C23 4.7867 22.2256 4 21 4ZM21 22H5V9H21V22Z" fill="#FF427F"/>
</svg>
